<?xml version="1.0" encoding="UTF-8"?>
<svg id="Layer_1" data-name="Layer 1" xmlns="http://www.w3.org/2000/svg" viewBox="0 0 1080 358.55">
  <defs>
    <style>
      .cls-1 {
        fill: #0a7c43;
      }
    </style>
  </defs>
  <g>
    <circle class="cls-1" cx="210.31" cy="234.53" r="14.15"/>
    <circle class="cls-1" cx="289.77" cy="234.58" r="14.15"/>
    <path class="cls-1" d="M310.62,108.49c18,1.59,13.47,20.26,9.38,32.29-5.67,16.65-14,25.21-32.28,26.04h-135.41s-23.64-58.33-23.64-58.33h181.96ZM293.8,129.92h-121.41l4.35,13.11,107.95-.05c7.1-.82,7.35-7.56,9.11-13.06Z"/>
    <path class="cls-1" d="M284.88,211.75l11.45-33.93c20.81-3.2,31.05-19.33,36.14-38.26,3.24-12.04,5.64-26.14-3.12-36.45l9.68-28.41c1.14-3.99,6.07-8.18,10.27-8.18h49.99s.58.42.32.61l-10.57,28.42-27.54.43-39.97,107.03c-1.02,3.48-5.98,8.73-9.72,8.73h-26.93Z"/>
    <path class="cls-1" d="M252.44,177.82l-10.59,33.94h-62.18c-6-.86-11.13-4.47-14.17-9.64-3.47-7.95-6.46-16.16-9.47-24.3h96.41Z"/>
  </g>
  <g>
    <polygon class="cls-1" points="728.74 67.27 687.77 214.48 663.14 214.6 654.01 137.16 633.03 214.59 604 214.59 644.86 67.27 673.69 67.27 682.81 144.71 703.79 67.27 706.48 67.27 707.29 67.27 728.74 67.27"/>
    <polygon class="cls-1" points="951.34 67.27 910.37 214.48 885.74 214.6 876.61 137.18 876.61 137.16 855.63 214.59 826.59 214.59 867.46 67.27 896.29 67.27 905.42 144.71 926.4 67.27 926.92 67.27 927.14 67.27 951.34 67.27"/>
    <path class="cls-1" d="M807.78,67.27l-34.11,118.59c-4.97,12.08-20.12,11.11-16.7-3.81l32-114.78h-30.65c-3.11,6.83-5.36,15.16-7.53,22.59-8.1,27.71-18.81,60.43-24.75,88.17-5.54,25.89,3.8,36.52,31.08,36.73,30.15.24,42.17-11.31,50.65-37.8,11.55-36.07,18.92-73.64,30.65-109.68h-30.65Z"/>
    <path class="cls-1" d="M491.08,214.6h31.19l10.75-29.03h21.51l-4.3,29.03h31.19l20.43-147.33h-47.32l-63.45,147.33ZM559.43,159.82c-1.46,2.15-11.55.51-14.58,1l23.65-60.21-9.07,59.21Z"/>
    <path class="cls-1" d="M484.07,67.28c-5-.42-41.76-.92-43.57.28l-40.82,147.03h31.19l13.06-47.17c14.74-.02,29.79.7,41.8-9.28,11.4-9.48,14.84-22.43,18.81-36.05,7.32-25.13,15.74-51.8-20.45-54.82ZM479.18,102.11c-.49,4.55-7.4,28.37-9.42,32.55-4.26,8.84-10.67,8.23-19.54,7.87l14.09-49.35c8.16-.44,16.02-1.76,14.87,8.93Z"/>
  </g>
  <g>
    <path class="cls-1" d="M399.69,248.86h12.94c7.36,0,11.41,4.08,11.41,10.76,0,5.35-2.55,7.95-4.9,8.83,3,1.23,6.13,3.98,6.13,10.36,0,8.06-5.25,12.48-12.8,12.48h-12.77v-42.43ZM410.8,265.79c4.72,0,5.95-1.82,5.95-5.48s-1.95-5.42-5.69-5.42h-3.93v10.9h3.66ZM407.13,285.36h4.53c3.79,0,5.98-1.94,5.98-6.71,0-4.38-1.82-6.94-6.81-6.94h-3.7v13.65Z"/>
    <path class="cls-1" d="M465.04,248.86v42.43h-7.61v-42.43h7.61Z"/>
    <path class="cls-1" d="M524.67,291.28h-5.79c-.18-1.29-.31-2.25-.36-3.61-1.89,3.36-4.84,4.34-8.43,4.34-8.86,0-12.07-7.89-12.07-21.68,0-15.49,5.23-22.15,14.34-22.15,11.5,0,12.13,9.85,12.26,12.37h-7.51c-.13-1.71-.49-5.94-4.98-5.94-4.9,0-6.26,6.52-6.26,15.71,0,9.89,1.16,15.32,6,15.32,4.03,0,5.24-3.09,5.24-9.34v-2.38h-5.71v-6.48h13.26v23.84Z"/>
    <path class="cls-1" d="M596.77,248.86h12.94c7.36,0,11.41,4.08,11.41,10.76,0,5.35-2.55,7.95-4.9,8.83,3,1.23,6.13,3.98,6.13,10.36,0,8.06-5.25,12.48-12.8,12.48h-12.77v-42.43ZM607.88,265.79c4.72,0,5.95-1.82,5.95-5.48s-1.95-5.42-5.69-5.42h-3.93v10.9h3.66ZM604.22,285.36h4.53c3.79,0,5.98-1.94,5.98-6.71,0-4.38-1.82-6.94-6.81-6.94h-3.7v13.65Z"/>
    <path class="cls-1" d="M661.68,280.6l-2.11,10.68h-7.61l9.82-42.43h9.86l9.93,42.43h-7.97l-2.11-10.68h-9.82ZM670.14,274.01c-1.58-8.12-2.85-14.05-3.52-18.11h-.18c-.52,3.9-1.86,10.28-3.42,18.11h7.12Z"/>
    <path class="cls-1" d="M711.79,286l16.53-30.49h-15.25v-6.65h23.51v6.07l-15.92,29.77h16.77l-.99,6.59h-24.65v-5.29Z"/>
    <path class="cls-1" d="M776.49,280.6l-2.11,10.68h-7.61l9.82-42.43h9.86l9.93,42.43h-7.97l-2.11-10.68h-9.82ZM784.95,274.01c-1.58-8.12-2.85-14.05-3.52-18.11h-.18c-.52,3.9-1.86,10.28-3.42,18.11h7.12Z"/>
    <path class="cls-1" d="M834.5,280.6l-2.11,10.68h-7.61l9.82-42.43h9.86l9.93,42.43h-7.97l-2.11-10.68h-9.82ZM842.96,274.01c-1.58-8.12-2.85-14.05-3.52-18.11h-.18c-.52,3.9-1.86,10.28-3.42,18.11h7.12Z"/>
    <path class="cls-1" d="M892.52,273.19v18.09h-7.55v-42.43h12.99c7.71,0,12.08,4.02,12.08,11.59,0,6.14-3.29,8.78-5.5,9.66,3.29,1.54,4.84,4.33,4.84,10.59v1.69c0,4.82.23,6.62.57,8.89h-7.35c-.62-1.94-.73-5.3-.73-8.96v-1.54c0-5.67-1.3-7.59-6.1-7.59h-3.26ZM892.52,267.04h3.56c4.59,0,6.38-1.97,6.38-6.26,0-3.65-1.75-5.77-5.63-5.77h-4.31v12.03Z"/>
  </g>
</svg>