<svg id="Layer_1" data-name="Layer 1" xmlns="http://www.w3.org/2000/svg" viewBox="0 0 840.81 252.85"><defs><style>.cls-1{fill:#119744;}</style></defs><circle class="cls-1" cx="88.3" cy="181.52" r="14.15"/><circle class="cls-1" cx="167.76" cy="181.58" r="14.15"/><path class="cls-1" d="M188.61,55.49c18,1.59,13.47,20.26,9.38,32.29-5.67,16.65-14,25.21-32.28,26H30.29L6.65,55.49ZM171.8,76.91H50.39L54.74,90l108,0C169.79,89.15,170,82.42,171.8,76.91Z"/><path class="cls-1" d="M162.87,158.74l11.45-33.92c20.82-3.21,31.05-19.33,36.14-38.26,3.23-12,5.63-26.14-3.12-36.45L217,21.71c1.14-4,6.07-8.18,10.27-8.18h50s.58.43.32.61L267,42.56,239.49,43l-40,107c-1,3.48-6,8.72-9.72,8.72Z"/><path class="cls-1" d="M130.43,124.82l-10.58,33.94H57.67a19.67,19.67,0,0,1-14.17-9.63C40,141.18,37,133,34,124.82Z"/><polygon class="cls-1" points="606.73 14.26 565.76 161.48 541.13 161.59 532 84.15 511.02 161.59 481.99 161.59 522.85 14.26 551.68 14.26 560.8 91.7 581.79 14.27 584.47 14.27 585.29 14.26 606.73 14.26"/><polygon class="cls-1" points="829.34 14.26 788.36 161.48 763.73 161.59 754.6 84.17 754.6 84.15 733.63 161.59 704.59 161.59 745.45 14.26 774.28 14.26 783.41 91.7 804.39 14.27 804.91 14.27 805.13 14.26 829.34 14.26"/><path class="cls-1" d="M685.77,14.26,651.66,132.85c-5,12.08-20.12,11.11-16.71-3.81L667,14.26H636.3c-3.1,6.83-5.35,15.16-7.52,22.59C620.68,64.56,610,97.28,604,125c-5.54,25.9,3.8,36.52,31.08,36.74,30.15.24,42.17-11.31,50.66-37.8,11.55-36.08,18.92-73.64,30.65-109.69Z"/><path class="cls-1" d="M369.08,161.59h31.18l10.76-29h21.5l-4.3,29h31.19L479.84,14.27H432.52Zm68.35-54.78c-1.47,2.15-11.55.51-14.58,1L446.49,47.6Z"/><path class="cls-1" d="M362.07,14.28c-5-.42-41.76-.92-43.58.28l-40.82,147h31.19l13.05-47.16c14.74,0,29.79.7,41.8-9.28,11.4-9.49,14.84-22.44,18.81-36.05C389.84,44,398.26,17.3,362.07,14.28Zm-4.9,34.83c-.49,4.55-7.4,28.37-9.42,32.55-4.26,8.84-10.67,8.23-19.54,7.87L342.3,40.18C350.46,39.74,358.32,38.42,357.17,49.11Z"/><path class="cls-1" d="M277.68,195.85h12.94c7.36,0,11.4,4.08,11.4,10.76,0,5.35-2.55,7.95-4.9,8.83,3,1.23,6.13,4,6.13,10.36,0,8.06-5.25,12.48-12.8,12.48H277.68Zm11.11,16.93c4.72,0,5.95-1.82,5.95-5.48s-1.95-5.41-5.69-5.41h-3.93v10.89Zm-3.67,19.58h4.54c3.79,0,6-1.94,6-6.71,0-4.38-1.82-6.94-6.81-6.94h-3.71Z"/><path class="cls-1" d="M343,195.85v42.43h-7.61V195.85Z"/><path class="cls-1" d="M402.66,238.28h-5.79a32.21,32.21,0,0,1-.36-3.61c-1.9,3.36-4.84,4.34-8.43,4.34-8.86,0-12.07-7.89-12.07-21.68,0-15.49,5.23-22.15,14.34-22.15,11.5,0,12.14,9.85,12.26,12.37H395.1c-.12-1.71-.49-5.94-5-5.94-4.9,0-6.26,6.52-6.26,15.71,0,9.89,1.16,15.32,6,15.32,4,0,5.24-3.09,5.24-9.34v-2.38H389.4v-6.48h13.26Z"/><path class="cls-1" d="M474.77,195.85H487.7c7.37,0,11.41,4.08,11.41,10.76,0,5.35-2.55,7.95-4.9,8.83,3,1.23,6.13,4,6.13,10.36,0,8.06-5.25,12.48-12.8,12.48H474.77Zm11.1,16.93c4.72,0,6-1.82,6-5.48s-1.95-5.41-5.69-5.41h-3.93v10.89Zm-3.66,19.58h4.54c3.78,0,6-1.94,6-6.71,0-4.38-1.81-6.94-6.8-6.94h-3.71Z"/><path class="cls-1" d="M539.67,227.6l-2.11,10.68H530l9.83-42.43h9.86l9.93,42.43h-8l-2.12-10.68Zm8.46-6.59c-1.58-8.12-2.85-14.06-3.51-18.11h-.18c-.52,3.91-1.87,10.28-3.43,18.11Z"/><path class="cls-1" d="M589.78,233l16.53-30.49H591.06v-6.65h23.51v6.07l-15.91,29.77h16.76l-1,6.59H589.78Z"/><path class="cls-1" d="M654.48,227.6l-2.1,10.68h-7.61l9.82-42.43h9.86l9.93,42.43h-8L664.3,227.6ZM663,221c-1.59-8.12-2.85-14.06-3.52-18.11h-.18c-.52,3.91-1.86,10.28-3.42,18.11Z"/><path class="cls-1" d="M712.49,227.6l-2.11,10.68h-7.61l9.83-42.43h9.86l9.93,42.43h-8L722.3,227.6ZM721,221c-1.58-8.12-2.85-14.06-3.51-18.11h-.19c-.51,3.91-1.86,10.28-3.42,18.11Z"/><path class="cls-1" d="M770.51,220.19v18.09H763V195.85h13c7.71,0,12.08,4,12.08,11.59,0,6.14-3.28,8.79-5.5,9.67,3.29,1.53,4.84,4.33,4.84,10.59v1.69a49.14,49.14,0,0,0,.58,8.89H780.6c-.62-1.94-.73-5.3-.73-9v-1.54c0-5.67-1.3-7.59-6.1-7.59Zm0-6.15h3.57c4.58,0,6.38-2,6.38-6.26,0-3.66-1.75-5.77-5.64-5.77h-4.31Z"/></svg>